<svg width="40" height="40" viewBox="0 0 40 40" fill="none" xmlns="http://www.w3.org/2000/svg">
  <circle cx="20" cy="20" r="20" fill="#000000"/>
  <path d="M23 13V18C24.66 18 26 16.66 26 15V13H23ZM23 20.5V28H20V18C18.34 18 17 19.34 17 21V23C17 24.66 18.34 26 20 26V28C16.69 28 14 25.31 14 22V21C14 17.69 16.69 15 20 15V13C15.58 13 12 16.58 12 21V22C12 26.42 15.58 30 20 30H23C25.21 30 27 28.21 27 26V13H26C24.34 13 23 14.34 23 16V20.5Z" fill="#FF0050"/>
  <path d="M23 13V18C24.66 18 26 16.66 26 15V13H23ZM23 20.5V28H20V18C18.34 18 17 19.34 17 21V23C17 24.66 18.34 26 20 26V28C16.69 28 14 25.31 14 22V21C14 17.69 16.69 15 20 15V13C15.58 13 12 16.58 12 21V22C12 26.42 15.58 30 20 30H23C25.21 30 27 28.21 27 26V13H26C24.34 13 23 14.34 23 16V20.5Z" fill="#00F2EA"/>
</svg>
