<svg xmlns="http://www.w3.org/2000/svg" viewBox="0 0 512 513">
  <defs>
    <linearGradient id="a" x1="256" x2="256" y1="25" y2="501" gradientUnits="userSpaceOnUse">
      <stop offset="0" stop-color="#61fd7d"/>
      <stop offset="1" stop-color="#2bb826"/>
    </linearGradient>
    <filter id="b" width="536" height="537" x="-12" y="-12" color-interpolation-filters="sRGB" filterUnits="userSpaceOnUse">
      <feFlood flood-opacity="0" result="BackgroundImageFix"/>
      <feColorMatrix in="SourceAlpha" values="0 0 0 0 0 0 0 0 0 0 0 0 0 0 0 0 0 0 127 0"/>
      <feOffset/>
      <feGaussianBlur stdDeviation="6"/>
      <feColorMatrix values="0 0 0 0 0 0 0 0 0 0 0 0 0 0 0 0 0 0 0.4 0"/>
      <feBlend in2="BackgroundImageFix" result="effect1_dropShadow"/>
      <feBlend in="SourceGraphic" in2="effect1_dropShadow" result="shape"/>
    </filter>
  </defs>
  <g filter="url(#b)">
    <path fill="url(#a)" d="M10.7 501.3c-3.5 12.1 8.8 23 20.6 18.3l90.5-36.4c24.7 13.6 52.1 21.1 81.1 21.1 97 0 175.7-78.7 175.7-175.7S299.9 152.9 202.9 152.9 27.2 231.6 27.2 328.6c0 31.7 8.4 61.5 23.2 87.2L13 501.3z"/>
    <path fill="#FFF" fill-rule="evenodd" d="M202.9 165.1c90.2 0 163.5 73.3 163.5 163.5S293.1 492.1 202.9 492.1c-28.8 0-55.8-7.4-79.3-20.5l-91 36.6 37.4-89.2C54.1 395.6 39.4 363.2 39.4 328.6c0-90.2 73.3-163.5 163.5-163.5zm90.5 221.4c4.1-1.4 67.9-32.5 69.3-36.2 1-2.6.6-5.3-1.3-8.1-1.8-2.7-5.3-4.4-8.8-4.4-.7 0-1.5.1-2.3.3-3.2.7-39.8 10.5-43.4 11.6-3.6 1.1-6.2.4-9.1-2.4-3.6-3.5-14.9-17.5-21.9-26.3-6.5-8.2-12.8-17.1-13.9-19.1-1.1-2-.1-3.8.9-5.4 1.2-1.9 2.6-3.5 3.9-5.1 1.2-1.5 2.5-3.1 3.7-4.6 1.2-1.5 1.6-2.8 2.4-4.7.8-1.9.4-3.8-.4-5.4-2.5-5.2-11.7-27.7-15.6-37-1.8-4.3-3.6-5.4-6.6-5.7-2.7-.3-5.5-.4-8.2-.4-2.8 0-7.2.6-11 4.5-3.7 3.9-14.5 14.2-14.5 34.7s14.9 40.3 17 43.1c2.1 2.8 28.7 47.1 71.3 64 42.6 16.9 42.6 11.3 50.3 10.6 7.7-.7 24.9-10.2 28.4-20 3.5-9.8 3.5-18.2 2.5-20-.7-1.1-3.1-2.1-6.4-3.5zm-90.5-29.7c-3.1-2-18.4-10.9-21.1-12.1-2.8-1.2-4.8-1.8-6.8 1.8-2 3.5-7.8 9.9-9.6 11.9-1.8 2-3.5 2.3-6.6.4-23.6-11.8-39.1-21-54.6-47.8-4.1-7.1.4-7.4 3.5-13 .5-.9 2.4-4.3 3.3-5.9 1-1.6 1.7-2.9 2.5-4.8.8-1.9.4-3.5-.2-4.9-.6-1.4-6.1-16.3-8.9-22.1v-.1c-2.2-4.7-4.5-5.3-6.7-5.5h-5.5c-2 0-5.3.7-8.1 3.5-2.8 2.8-10.7 10.5-10.7 25.6s11 29.7 12.5 31.7c1.5 2 21.6 35.4 54.3 48.2 32.6 12.8 32.6 8.5 38.5 8 5.9-.5 19-7.8 21.7-15.3 2.7-7.5 2.7-13.9 1.9-15.3-.8-1.4-2.8-2.1-5.9-3.6z" clip-rule="evenodd"/>
  </g>
</svg>
