<svg width="40" height="40" viewBox="0 0 40 40" fill="none" xmlns="http://www.w3.org/2000/svg">
  <circle cx="20" cy="20" r="20" fill="url(#phoneGradient)"/>
  <defs>
    <linearGradient id="phoneGradient" x1="0" y1="0" x2="40" y2="40" gradientUnits="userSpaceOnUse">
      <stop offset="0%" stop-color="#4185DD"/>
      <stop offset="100%" stop-color="#B42DDA"/>
    </linearGradient>
  </defs>
  <path d="M25.5 28C25.5 28 27 28 27.5 27.5C28 27 28.5 26 28.5 26C28.5 26 26.5 24.5 25.5 23.5C24.5 22.5 23.5 23 23 23.5C22.5 24 22 24 21.5 23.5C21 23 18 20 17 19C16 18 16.5 17.5 17 17C17.5 16.5 17.5 15.5 16.5 14.5C15.5 13.5 14 11.5 14 11.5C14 11.5 13 12 12.5 12.5C12 13 12 14.5 12 14.5C12 14.5 12.5 18.5 15.5 22.5C18.5 26.5 22.5 28 22.5 28C22.5 28 24 28 25.5 28Z" fill="white"/>
</svg>
