<svg width="40" height="40" viewBox="0 0 40 40" fill="none" xmlns="http://www.w3.org/2000/svg">
  <circle cx="20" cy="20" r="20" fill="url(#locationGradient)"/>
  <defs>
    <linearGradient id="locationGradient" x1="0" y1="0" x2="40" y2="40" gradientUnits="userSpaceOnUse">
      <stop offset="0%" stop-color="#4185DD"/>
      <stop offset="100%" stop-color="#B42DDA"/>
    </linearGradient>
  </defs>
  <path d="M20 10C16.134 10 13 13.134 13 17C13 22.25 20 30 20 30C20 30 27 22.25 27 17C27 13.134 23.866 10 20 10ZM20 19.5C18.619 19.5 17.5 18.381 17.5 17C17.5 15.619 18.619 14.5 20 14.5C21.381 14.5 22.5 15.619 22.5 17C22.5 18.381 21.381 19.5 20 19.5Z" fill="white"/>
</svg>
